# Blender v2.79 (sub 0) OBJ File: ''
# www.blender.org
mtllib trin_v8_turbo.mtl
o trin_v8_turbo
v -0.187500 0.250000 -0.000000
v -0.187500 0.250000 1.062500
v 0.187500 0.250000 1.062500
v 0.187500 0.250000 0.000000
v 0.187500 0.000000 0.000000
v 0.187500 0.000000 1.062500
v -0.187500 -0.000000 1.062500
v -0.187500 -0.000000 -0.000000
v 0.125000 0.466506 0.031250
v 0.125000 0.466506 1.031250
v 0.287380 0.372756 1.031250
v 0.287380 0.372756 0.031250
v 0.162380 0.156250 0.031250
v 0.162380 0.156250 1.031250
v -0.000000 0.250000 1.031250
v -0.000000 0.250000 0.031250
v -0.287380 0.372756 0.031250
v -0.287380 0.372756 1.031250
v -0.125000 0.466506 1.031250
v -0.125000 0.466506 0.031250
v -0.000000 0.250000 0.031250
v -0.000000 0.250000 1.031250
v -0.162380 0.156250 1.031250
v -0.162380 0.156250 0.031250
v -0.125000 0.562500 0.062500
v -0.125000 0.562500 1.000000
v 0.125000 0.562500 1.000000
v 0.125000 0.562500 0.062500
v 0.187500 0.437500 0.062500
v 0.187500 0.437500 1.000000
v -0.187500 0.437500 1.000000
v -0.187500 0.437500 0.062500
v -0.125000 0.093750 1.031250
v -0.125000 0.093750 1.093750
v -0.062500 0.093750 1.093750
v -0.062500 0.093750 1.031250
v -0.062500 0.031250 1.031250
v -0.062500 0.031250 1.093750
v -0.125000 0.031250 1.093750
v -0.125000 0.031250 1.031250
v 0.093750 0.218750 1.031250
v 0.093750 0.218750 1.093750
v 0.156250 0.218750 1.093750
v 0.156250 0.218750 1.031250
v 0.156250 0.156250 1.031250
v 0.156250 0.156250 1.093750
v 0.093750 0.156250 1.093750
v 0.093750 0.156250 1.031250
v -0.156250 0.218750 1.031250
v -0.156250 0.218750 1.093750
v -0.093750 0.218750 1.093750
v -0.093750 0.218750 1.031250
v -0.093750 0.156250 1.031250
v -0.093750 0.156250 1.093750
v -0.156250 0.156250 1.093750
v -0.156250 0.156250 1.031250
v 0.062500 0.093750 1.031250
v 0.062500 0.093750 1.093750
v 0.125000 0.093750 1.093750
v 0.125000 0.093750 1.031250
v 0.125000 0.031250 1.031250
v 0.125000 0.031250 1.093750
v 0.062500 0.031250 1.093750
v 0.062500 0.031250 1.031250
v 0.156250 0.156250 1.031250
v 0.156250 0.156250 1.093750
v 0.156250 0.156250 1.093750
v 0.156250 0.156250 1.031250
v 0.126010 0.034963 1.031250
v 0.126010 0.034963 1.093750
v 0.126010 0.034963 1.093750
v 0.126010 0.034963 1.031250
v 0.093750 0.215625 1.031250
v 0.093750 0.215625 1.093750
v 0.093750 0.215625 1.093750
v 0.093750 0.215625 1.031250
v 0.063510 0.094338 1.031250
v 0.063510 0.094338 1.093750
v 0.063510 0.094338 1.093750
v 0.063510 0.094338 1.031250
v -0.093750 0.215625 1.031250
v -0.093750 0.215625 1.093750
v -0.093750 0.215625 1.093750
v -0.093750 0.215625 1.031250
v -0.063510 0.094338 1.031250
v -0.063510 0.094338 1.093750
v -0.063510 0.094338 1.093750
v -0.063510 0.094338 1.031250
v -0.156250 0.156250 1.031250
v -0.156250 0.156250 1.093750
v -0.156250 0.156250 1.093750
v -0.156250 0.156250 1.031250
v -0.126010 0.034963 1.031250
v -0.126010 0.034963 1.093750
v -0.126010 0.034963 1.093750
v -0.126010 0.034963 1.031250
vt 1.109375 0.890625
vt 1.375000 0.890625
vt 1.375000 0.984375
vt 1.109375 0.984375
vt 1.375000 0.890625
vt 1.640625 0.890625
vt 1.640625 0.984375
vt 1.375000 0.984375
vt 1.109375 0.828125
vt 1.375000 0.828125
vt 1.734375 0.890625
vt 1.468750 0.890625
vt 1.468750 0.828125
vt 1.734375 0.828125
vt 1.015625 0.890625
vt 1.015625 0.828125
vt 1.062500 0.687500
vt 1.312500 0.687500
vt 1.312500 0.734375
vt 1.062500 0.734375
vt 1.312500 0.687500
vt 1.562500 0.687500
vt 1.562500 0.734375
vt 1.312500 0.734375
vt 1.062500 0.625000
vt 1.312500 0.625000
vt 1.609375 0.687500
vt 1.359375 0.687500
vt 1.359375 0.625000
vt 1.609375 0.625000
vt 1.015625 0.687500
vt 1.015625 0.625000
vt 1.062500 0.562500
vt 1.312500 0.562500
vt 1.312500 0.609375
vt 1.062500 0.609375
vt 1.312500 0.562500
vt 1.562500 0.562500
vt 1.562500 0.609375
vt 1.312500 0.609375
vt 1.062500 0.500000
vt 1.312500 0.500000
vt 1.609375 0.562500
vt 1.359375 0.562500
vt 1.359375 0.500000
vt 1.609375 0.500000
vt 1.015625 0.562500
vt 1.015625 0.500000
vt 1.109375 0.390625
vt 1.343750 0.390625
vt 1.343750 0.484375
vt 1.109375 0.484375
vt 1.343750 0.390625
vt 1.578125 0.390625
vt 1.578125 0.484375
vt 1.343750 0.484375
vt 1.109375 0.359375
vt 1.343750 0.359375
vt 1.671875 0.390625
vt 1.437500 0.390625
vt 1.437500 0.359375
vt 1.671875 0.359375
vt 1.015625 0.390625
vt 1.015625 0.359375
vt 1.031250 0.968750
vt 1.046875 0.968750
vt 1.046875 0.984375
vt 1.031250 0.984375
vt 1.046875 0.968750
vt 1.062500 0.968750
vt 1.062500 0.984375
vt 1.046875 0.984375
vt 1.031250 0.953125
vt 1.046875 0.953125
vt 1.078125 0.968750
vt 1.062500 0.968750
vt 1.062500 0.953125
vt 1.078125 0.953125
vt 1.015625 0.968750
vt 1.015625 0.953125
vt 1.781250 0.968750
vt 1.796875 0.968750
vt 1.796875 0.984375
vt 1.781250 0.984375
vt 1.796875 0.968750
vt 1.812500 0.968750
vt 1.812500 0.984375
vt 1.796875 0.984375
vt 1.781250 0.953125
vt 1.796875 0.953125
vt 1.828125 0.968750
vt 1.812500 0.968750
vt 1.812500 0.953125
vt 1.828125 0.953125
vt 1.765625 0.968750
vt 1.765625 0.953125
vt 1.906250 0.968750
vt 1.921875 0.968750
vt 1.921875 0.984375
vt 1.906250 0.984375
vt 1.921875 0.968750
vt 1.937500 0.968750
vt 1.937500 0.984375
vt 1.921875 0.984375
vt 1.906250 0.953125
vt 1.921875 0.953125
vt 1.953125 0.968750
vt 1.937500 0.968750
vt 1.937500 0.953125
vt 1.953125 0.953125
vt 1.890625 0.968750
vt 1.890625 0.953125
vt 1.781250 0.843750
vt 1.796875 0.843750
vt 1.796875 0.859375
vt 1.781250 0.859375
vt 1.796875 0.843750
vt 1.812500 0.843750
vt 1.812500 0.859375
vt 1.796875 0.859375
vt 1.781250 0.828125
vt 1.796875 0.828125
vt 1.828125 0.843750
vt 1.812500 0.843750
vt 1.812500 0.828125
vt 1.828125 0.828125
vt 1.765625 0.843750
vt 1.765625 0.828125
vt 1.890625 0.859375
vt 1.906250 0.859375
vt 1.906250 0.859375
vt 1.890625 0.859375
vt 1.906250 0.859375
vt 1.921875 0.859375
vt 1.921875 0.859375
vt 1.906250 0.859375
vt 1.890625 0.828125
vt 1.906250 0.828125
vt 1.921875 0.859375
vt 1.906250 0.828125
vt 1.921875 0.828125
vt 1.890625 0.828125
vt 1.015625 0.734375
vt 1.031250 0.734375
vt 1.031250 0.734375
vt 1.015625 0.734375
vt 1.031250 0.734375
vt 1.046875 0.734375
vt 1.046875 0.734375
vt 1.031250 0.734375
vt 1.015625 0.703125
vt 1.031250 0.703125
vt 1.046875 0.734375
vt 1.031250 0.703125
vt 1.046875 0.703125
vt 1.015625 0.703125
vt 1.640625 0.734375
vt 1.656250 0.734375
vt 1.656250 0.734375
vt 1.640625 0.734375
vt 1.656250 0.734375
vt 1.671875 0.734375
vt 1.671875 0.734375
vt 1.656250 0.734375
vt 1.640625 0.703125
vt 1.656250 0.703125
vt 1.671875 0.734375
vt 1.656250 0.703125
vt 1.671875 0.703125
vt 1.640625 0.703125
vt 1.765625 0.734375
vt 1.781250 0.734375
vt 1.781250 0.734375
vt 1.765625 0.734375
vt 1.781250 0.734375
vt 1.796875 0.734375
vt 1.796875 0.734375
vt 1.781250 0.734375
vt 1.765625 0.703125
vt 1.781250 0.703125
vt 1.796875 0.734375
vt 1.781250 0.703125
vt 1.796875 0.703125
vt 1.765625 0.703125
vn -0.0000 1.0000 -0.0000
vn 0.0000 -1.0000 0.0000
vn -1.0000 -0.0000 -0.0000
vn 1.0000 0.0000 0.0000
vn -0.0000 0.0000 1.0000
vn 0.0000 0.0000 -1.0000
vn 0.5000 0.8660 0.0000
vn -0.5000 -0.8660 -0.0000
vn -0.8660 0.5000 -0.0000
vn 0.8660 -0.5000 0.0000
vn -0.5000 0.8660 -0.0000
vn 0.5000 -0.8660 0.0000
vn -0.8660 -0.5000 -0.0000
vn 0.8660 0.5000 0.0000
vn -0.8944 0.4472 -0.0000
vn 0.8944 0.4472 0.0000
vn -0.9703 0.2419 -0.0000
vn 0.9703 -0.2419 0.0000
vn -0.9703 -0.2419 0.0000
vn 0.9703 0.2419 0.0000
usemtl ModelMaterial
s off
f 1/1/1 2/2/1 3/3/1 4/4/1
f 5/5/2 6/6/2 7/7/2 8/8/2
f 2/2/3 1/1/3 8/9/3 7/10/3
f 4/11/4 3/12/4 6/13/4 5/14/4
f 3/12/5 2/2/5 7/10/5 6/13/5
f 1/1/6 4/15/6 5/16/6 8/9/6
f 9/17/7 10/18/7 11/19/7 12/20/7
f 13/21/8 14/22/8 15/23/8 16/24/8
f 10/18/9 9/17/9 16/25/9 15/26/9
f 12/27/10 11/28/10 14/29/10 13/30/10
f 11/28/5 10/18/5 15/26/5 14/29/5
f 9/17/6 12/31/6 13/32/6 16/25/6
f 17/33/11 18/34/11 19/35/11 20/36/11
f 21/37/12 22/38/12 23/39/12 24/40/12
f 18/34/13 17/33/13 24/41/13 23/42/13
f 20/43/14 19/44/14 22/45/14 21/46/14
f 19/44/5 18/34/5 23/42/5 22/45/5
f 17/33/6 20/47/6 21/48/6 24/41/6
f 25/49/1 26/50/1 27/51/1 28/52/1
f 29/53/2 30/54/2 31/55/2 32/56/2
f 26/50/15 25/49/15 32/57/15 31/58/15
f 28/59/16 27/60/16 30/61/16 29/62/16
f 27/60/5 26/50/5 31/58/5 30/61/5
f 25/49/6 28/63/6 29/64/6 32/57/6
f 33/65/1 34/66/1 35/67/1 36/68/1
f 37/69/2 38/70/2 39/71/2 40/72/2
f 34/66/3 33/65/3 40/73/3 39/74/3
f 36/75/4 35/76/4 38/77/4 37/78/4
f 35/76/5 34/66/5 39/74/5 38/77/5
f 33/65/6 36/79/6 37/80/6 40/73/6
f 41/81/1 42/82/1 43/83/1 44/84/1
f 45/85/2 46/86/2 47/87/2 48/88/2
f 42/82/3 41/81/3 48/89/3 47/90/3
f 44/91/4 43/92/4 46/93/4 45/94/4
f 43/92/5 42/82/5 47/90/5 46/93/5
f 41/81/6 44/95/6 45/96/6 48/89/6
f 49/97/1 50/98/1 51/99/1 52/100/1
f 53/101/2 54/102/2 55/103/2 56/104/2
f 50/98/3 49/97/3 56/105/3 55/106/3
f 52/107/4 51/108/4 54/109/4 53/110/4
f 51/108/5 50/98/5 55/106/5 54/109/5
f 49/97/6 52/111/6 53/112/6 56/105/6
f 57/113/1 58/114/1 59/115/1 60/116/1
f 61/117/2 62/118/2 63/119/2 64/120/2
f 58/114/3 57/113/3 64/121/3 63/122/3
f 60/123/4 59/124/4 62/125/4 61/126/4
f 59/124/5 58/114/5 63/122/5 62/125/5
f 57/113/6 60/127/6 61/128/6 64/121/6
f 65/129/5 66/130/5 67/131/5 68/132/5
f 69/133/5 70/134/5 71/135/5 72/136/5
f 66/130/17 65/129/17 72/137/17 71/138/17
f 68/139/18 67/131/18 70/140/18 69/141/18
f 67/131/5 66/130/5 71/138/5 70/140/5
f 65/129/5 68/132/5 69/142/5 72/137/5
f 73/143/5 74/144/5 75/145/5 76/146/5
f 77/147/5 78/148/5 79/149/5 80/150/5
f 74/144/17 73/143/17 80/151/17 79/152/17
f 76/153/18 75/145/18 78/154/18 77/155/18
f 75/145/5 74/144/5 79/152/5 78/154/5
f 73/143/5 76/146/5 77/156/5 80/151/5
f 81/157/5 82/158/5 83/159/5 84/160/5
f 85/161/5 86/162/5 87/163/5 88/164/5
f 82/158/19 81/157/19 88/165/19 87/166/19
f 84/167/20 83/159/20 86/168/20 85/169/20
f 83/159/5 82/158/5 87/166/5 86/168/5
f 81/157/5 84/160/5 85/170/5 88/165/5
f 89/171/5 90/172/5 91/173/5 92/174/5
f 93/175/5 94/176/5 95/177/5 96/178/5
f 90/172/19 89/171/19 96/179/19 95/180/19
f 92/181/20 91/173/20 94/182/20 93/183/20
f 91/173/5 90/172/5 95/180/5 94/182/5
f 89/171/5 92/174/5 93/184/5 96/179/5
