# Blender v2.79 (sub 0) OBJ File: ''
# www.blender.org
mtllib trin_i4_turbo.obj.mtl
o trin_i4_turbo
v -0.125000 0.312500 -0.000000
v -0.125000 0.312500 0.750000
v 0.125000 0.312500 0.750000
v 0.125000 0.312500 0.000000
v 0.125000 0.187500 0.000000
v 0.125000 0.187500 0.750000
v -0.125000 0.187500 0.750000
v -0.125000 0.187500 -0.000000
v -0.125000 0.187500 -0.000000
v -0.125000 0.187500 0.750000
v 0.125000 0.187500 0.750000
v 0.125000 0.187500 0.000000
v 0.187500 0.062500 0.000000
v 0.187500 0.062500 0.750000
v -0.187500 0.062500 0.750000
v -0.187500 0.062500 -0.000000
v -0.187500 0.062500 -0.000000
v -0.187500 0.062500 0.750000
v 0.187500 0.062500 0.750000
v 0.187500 0.062500 0.000000
v 0.187500 0.000000 0.000000
v 0.187500 0.000000 0.750000
v -0.187500 -0.000000 0.750000
v -0.187500 -0.000000 -0.000000
v -0.062500 0.375000 -0.000000
v -0.062500 0.375000 0.750000
v 0.062500 0.375000 0.750000
v 0.062500 0.375000 0.000000
v 0.125000 0.312500 0.000000
v 0.125000 0.312500 0.750000
v -0.125000 0.312500 0.750000
v -0.125000 0.312500 -0.000000
v -0.031250 0.093750 0.718750
v -0.031250 0.093750 0.781250
v 0.031250 0.093750 0.781250
v 0.031250 0.093750 0.718750
v 0.031250 0.031250 0.718750
v 0.031250 0.031250 0.781250
v -0.031250 0.031250 0.781250
v -0.031250 0.031250 0.718750
v -0.109375 0.218750 0.718750
v -0.109375 0.218750 0.781250
v -0.046875 0.218750 0.781250
v -0.046875 0.218750 0.718750
v -0.046875 0.156250 0.718750
v -0.046875 0.156250 0.781250
v -0.109375 0.156250 0.781250
v -0.109375 0.156250 0.718750
v -0.045784 0.219841 0.718731
v -0.044694 0.220932 0.781212
v -0.044694 0.220932 0.781212
v -0.045784 0.219841 0.718731
v 0.033730 0.092653 0.719563
v 0.034821 0.093744 0.782044
v 0.034821 0.093744 0.782044
v 0.033730 0.092653 0.719563
v -0.108284 0.157341 0.718731
v -0.107194 0.158432 0.781212
v -0.107194 0.158432 0.781212
v -0.108284 0.157341 0.718731
v -0.028770 0.030153 0.719563
v -0.027679 0.031244 0.782044
v -0.027679 0.031244 0.782044
v -0.028770 0.030153 0.719563
v 0.187500 0.250000 0.250000
v 0.187500 0.250000 0.312500
v 0.375000 0.250000 0.312500
v 0.375000 0.250000 0.250000
v 0.375000 0.125000 0.250000
v 0.375000 0.125000 0.312500
v 0.187500 0.125000 0.312500
v 0.187500 0.125000 0.250000
v 0.125000 0.250000 0.250000
v 0.125000 0.250000 0.312500
v 0.187500 0.250000 0.312500
v 0.187500 0.250000 0.250000
v 0.187500 0.187500 0.250000
v 0.187500 0.187500 0.312500
v 0.125000 0.187500 0.312500
v 0.125000 0.187500 0.250000
v 0.209826 0.172878 0.250000
v 0.209826 0.172878 0.312500
v 0.250000 0.125000 0.312500
v 0.250000 0.125000 0.250000
v 0.154244 0.044652 0.250000
v 0.154244 0.044652 0.312500
v 0.114070 0.092529 0.312500
v 0.114070 0.092529 0.250000
v 0.218750 0.281250 0.250000
v 0.218750 0.281250 0.312500
v 0.343750 0.281250 0.312500
v 0.343750 0.281250 0.250000
v 0.343750 0.250000 0.250000
v 0.343750 0.250000 0.312500
v 0.218750 0.250000 0.312500
v 0.218750 0.250000 0.250000
v 0.218750 0.125000 0.250000
v 0.218750 0.125000 0.312500
v 0.343750 0.125000 0.312500
v 0.343750 0.125000 0.250000
v 0.343750 0.093750 0.250000
v 0.343750 0.093750 0.312500
v 0.218750 0.093750 0.312500
v 0.218750 0.093750 0.250000
v 0.218750 0.250000 0.218750
v 0.218750 0.250000 0.343750
v 0.343750 0.250000 0.343750
v 0.343750 0.250000 0.218750
v 0.343750 0.125000 0.218750
v 0.343750 0.125000 0.343750
v 0.218750 0.125000 0.343750
v 0.218750 0.125000 0.218750
v -0.218750 0.406250 0.062500
v -0.218750 0.406250 0.687500
v -0.099212 0.442796 0.687500
v -0.099212 0.442796 0.062500
v -0.080939 0.383027 0.062500
v -0.080939 0.383027 0.687500
v -0.200477 0.346481 0.687500
v -0.200477 0.346481 0.062500
v -0.125000 0.375000 0.437500
v -0.125000 0.375000 0.500000
v -0.062500 0.375000 0.500000
v -0.062500 0.375000 0.437500
v -0.062500 0.312500 0.437500
v -0.062500 0.312500 0.500000
v -0.125000 0.312500 0.500000
v -0.125000 0.312500 0.437500
v -0.125000 0.375000 0.062500
v -0.125000 0.375000 0.125000
v -0.062500 0.375000 0.125000
v -0.062500 0.375000 0.062500
v -0.062500 0.312500 0.062500
v -0.062500 0.312500 0.125000
v -0.125000 0.312500 0.125000
v -0.125000 0.312500 0.062500
v -0.125000 0.375000 0.250000
v -0.125000 0.375000 0.312500
v -0.062500 0.375000 0.312500
v -0.062500 0.375000 0.250000
v -0.062500 0.312500 0.250000
v -0.062500 0.312500 0.312500
v -0.125000 0.312500 0.312500
v -0.125000 0.312500 0.250000
v -0.125000 0.375000 0.625000
v -0.125000 0.375000 0.687500
v -0.062500 0.375000 0.687500
v -0.062500 0.375000 0.625000
v -0.062500 0.312500 0.625000
v -0.062500 0.312500 0.687500
v -0.125000 0.312500 0.687500
v -0.125000 0.312500 0.625000
vt 1.078125 0.843750
vt 1.265625 0.843750
vt 1.265625 0.968750
vt 1.078125 0.968750
vt 1.265625 0.843750
vt 1.453125 0.843750
vt 1.453125 0.968750
vt 1.265625 0.968750
vt 1.078125 0.781250
vt 1.265625 0.781250
vt 1.515625 0.843750
vt 1.328125 0.843750
vt 1.328125 0.781250
vt 1.515625 0.781250
vt 1.015625 0.843750
vt 1.015625 0.781250
vt 1.078125 0.593750
vt 1.265625 0.593750
vt 1.265625 0.718750
vt 1.078125 0.718750
vt 1.265625 0.593750
vt 1.453125 0.593750
vt 1.453125 0.718750
vt 1.265625 0.718750
vt 1.078125 0.531250
vt 1.265625 0.531250
vt 1.515625 0.593750
vt 1.328125 0.593750
vt 1.328125 0.531250
vt 1.515625 0.531250
vt 1.015625 0.593750
vt 1.015625 0.531250
vt 1.109375 0.281250
vt 1.296875 0.281250
vt 1.296875 0.468750
vt 1.109375 0.468750
vt 1.296875 0.281250
vt 1.484375 0.281250
vt 1.484375 0.468750
vt 1.296875 0.468750
vt 1.109375 0.250000
vt 1.296875 0.250000
vt 1.578125 0.281250
vt 1.390625 0.281250
vt 1.390625 0.250000
vt 1.578125 0.250000
vt 1.015625 0.281250
vt 1.015625 0.250000
vt 1.078125 0.093750
vt 1.265625 0.093750
vt 1.265625 0.218750
vt 1.078125 0.218750
vt 1.265625 0.093750
vt 1.453125 0.093750
vt 1.453125 0.218750
vt 1.265625 0.218750
vt 1.078125 0.062500
vt 1.265625 0.062500
vt 1.515625 0.093750
vt 1.328125 0.093750
vt 1.328125 0.062500
vt 1.515625 0.062500
vt 1.015625 0.093750
vt 1.015625 0.062500
vt 1.531250 0.937500
vt 1.546875 0.937500
vt 1.546875 0.968750
vt 1.531250 0.968750
vt 1.546875 0.937500
vt 1.562500 0.937500
vt 1.562500 0.968750
vt 1.546875 0.968750
vt 1.531250 0.906250
vt 1.546875 0.906250
vt 1.578125 0.937500
vt 1.562500 0.937500
vt 1.562500 0.906250
vt 1.578125 0.906250
vt 1.515625 0.937500
vt 1.515625 0.906250
vt 1.656250 0.937500
vt 1.671875 0.937500
vt 1.671875 0.968750
vt 1.656250 0.968750
vt 1.671875 0.937500
vt 1.687500 0.937500
vt 1.687500 0.968750
vt 1.671875 0.968750
vt 1.656250 0.906250
vt 1.671875 0.906250
vt 1.703125 0.937500
vt 1.687500 0.937500
vt 1.687500 0.906250
vt 1.703125 0.906250
vt 1.640625 0.937500
vt 1.640625 0.906250
vt 1.015625 0.968750
vt 1.031250 0.968750
vt 1.031250 0.968750
vt 1.015625 0.968750
vt 1.031250 0.968750
vt 1.046875 0.968750
vt 1.046875 0.968750
vt 1.031250 0.968750
vt 1.015625 0.875000
vt 1.031250 0.875000
vt 1.046875 0.968750
vt 1.031250 0.875000
vt 1.046875 0.875000
vt 1.015625 0.875000
vt 1.765625 0.968750
vt 1.781250 0.968750
vt 1.781250 0.968750
vt 1.765625 0.968750
vt 1.781250 0.968750
vt 1.796875 0.968750
vt 1.796875 0.968750
vt 1.781250 0.968750
vt 1.765625 0.875000
vt 1.781250 0.875000
vt 1.796875 0.968750
vt 1.781250 0.875000
vt 1.796875 0.875000
vt 1.765625 0.875000
vt 1.687500 0.625000
vt 1.703125 0.625000
vt 1.703125 0.718750
vt 1.687500 0.718750
vt 1.703125 0.625000
vt 1.718750 0.625000
vt 1.718750 0.718750
vt 1.703125 0.718750
vt 1.687500 0.562500
vt 1.703125 0.562500
vt 1.765625 0.625000
vt 1.750000 0.625000
vt 1.750000 0.562500
vt 1.765625 0.562500
vt 1.640625 0.625000
vt 1.640625 0.562500
vt 1.906250 0.937500
vt 1.921875 0.937500
vt 1.921875 0.968750
vt 1.906250 0.968750
vt 1.921875 0.937500
vt 1.937500 0.937500
vt 1.937500 0.968750
vt 1.921875 0.968750
vt 1.906250 0.906250
vt 1.921875 0.906250
vt 1.953125 0.937500
vt 1.937500 0.937500
vt 1.937500 0.906250
vt 1.953125 0.906250
vt 1.890625 0.937500
vt 1.890625 0.906250
vt 1.531250 0.687500
vt 1.546875 0.687500
vt 1.546875 0.718750
vt 1.531250 0.718750
vt 1.546875 0.687500
vt 1.562500 0.687500
vt 1.562500 0.718750
vt 1.546875 0.718750
vt 1.531250 0.625000
vt 1.546875 0.625000
vt 1.578125 0.687500
vt 1.562500 0.687500
vt 1.562500 0.625000
vt 1.578125 0.625000
vt 1.515625 0.687500
vt 1.515625 0.625000
vt 1.921875 0.656250
vt 1.937500 0.656250
vt 1.937500 0.718750
vt 1.921875 0.718750
vt 1.937500 0.656250
vt 1.953125 0.656250
vt 1.953125 0.718750
vt 1.937500 0.718750
vt 1.921875 0.625000
vt 1.937500 0.625000
vt 1.984375 0.656250
vt 1.968750 0.656250
vt 1.968750 0.625000
vt 1.984375 0.625000
vt 1.890625 0.656250
vt 1.890625 0.625000
vt 1.546875 0.406250
vt 1.562500 0.406250
vt 1.562500 0.468750
vt 1.546875 0.468750
vt 1.562500 0.406250
vt 1.578125 0.406250
vt 1.578125 0.468750
vt 1.562500 0.468750
vt 1.546875 0.375000
vt 1.562500 0.375000
vt 1.609375 0.406250
vt 1.593750 0.406250
vt 1.593750 0.375000
vt 1.609375 0.375000
vt 1.515625 0.406250
vt 1.515625 0.375000
vt 1.671875 0.406250
vt 1.703125 0.406250
vt 1.703125 0.468750
vt 1.671875 0.468750
vt 1.703125 0.406250
vt 1.734375 0.406250
vt 1.734375 0.468750
vt 1.703125 0.468750
vt 1.671875 0.343750
vt 1.703125 0.343750
vt 1.765625 0.406250
vt 1.734375 0.406250
vt 1.734375 0.343750
vt 1.765625 0.343750
vt 1.640625 0.406250
vt 1.640625 0.343750
vt 1.546875 0.156250
vt 1.703125 0.156250
vt 1.703125 0.218750
vt 1.546875 0.218750
vt 1.703125 0.156250
vt 1.859375 0.156250
vt 1.859375 0.218750
vt 1.703125 0.218750
vt 1.546875 0.125000
vt 1.703125 0.125000
vt 1.890625 0.156250
vt 1.734375 0.156250
vt 1.734375 0.125000
vt 1.890625 0.125000
vt 1.515625 0.156250
vt 1.515625 0.125000
vt 1.781250 0.687500
vt 1.796875 0.687500
vt 1.796875 0.718750
vt 1.781250 0.718750
vt 1.796875 0.687500
vt 1.812500 0.687500
vt 1.812500 0.718750
vt 1.796875 0.718750
vt 1.781250 0.656250
vt 1.796875 0.656250
vt 1.828125 0.687500
vt 1.812500 0.687500
vt 1.812500 0.656250
vt 1.828125 0.656250
vt 1.765625 0.687500
vt 1.765625 0.656250
vt 1.031250 0.437500
vt 1.046875 0.437500
vt 1.046875 0.468750
vt 1.031250 0.468750
vt 1.046875 0.437500
vt 1.062500 0.437500
vt 1.062500 0.468750
vt 1.046875 0.468750
vt 1.031250 0.406250
vt 1.046875 0.406250
vt 1.078125 0.437500
vt 1.062500 0.437500
vt 1.062500 0.406250
vt 1.078125 0.406250
vt 1.015625 0.437500
vt 1.015625 0.406250
vt 1.906250 0.437500
vt 1.921875 0.437500
vt 1.921875 0.468750
vt 1.906250 0.468750
vt 1.921875 0.437500
vt 1.937500 0.437500
vt 1.937500 0.468750
vt 1.921875 0.468750
vt 1.906250 0.406250
vt 1.921875 0.406250
vt 1.953125 0.437500
vt 1.937500 0.437500
vt 1.937500 0.406250
vt 1.953125 0.406250
vt 1.890625 0.437500
vt 1.890625 0.406250
vt 1.812500 0.343750
vt 1.828125 0.343750
vt 1.828125 0.375000
vt 1.812500 0.375000
vt 1.828125 0.343750
vt 1.843750 0.343750
vt 1.843750 0.375000
vt 1.828125 0.375000
vt 1.812500 0.312500
vt 1.828125 0.312500
vt 1.859375 0.343750
vt 1.843750 0.343750
vt 1.843750 0.312500
vt 1.859375 0.312500
vt 1.796875 0.343750
vt 1.796875 0.312500
vn -0.0000 1.0000 0.0000
vn 0.0000 -1.0000 0.0000
vn -1.0000 -0.0000 -0.0000
vn 1.0000 0.0000 0.0000
vn -0.0000 0.0000 1.0000
vn 0.0000 -0.0000 -1.0000
vn -0.8944 0.4472 -0.0000
vn 0.8944 0.4472 0.0000
vn -0.7071 0.7071 -0.0000
vn 0.7071 0.7071 -0.0000
vn -0.8478 -0.5298 0.0240
vn 0.8478 0.5298 -0.0240
vn 0.7660 0.6428 0.0000
vn -0.7660 -0.6428 -0.0000
vn -0.6428 0.7660 -0.0000
vn 0.6428 -0.7660 0.0000
vn -0.2924 0.9563 0.0000
vn 0.2924 -0.9563 -0.0000
vn -0.9563 -0.2924 -0.0000
vn 0.9563 0.2924 0.0000
usemtl ModelMaterial
s off
f 1/1/1 2/2/1 3/3/1 4/4/1
f 5/5/2 6/6/2 7/7/2 8/8/2
f 2/2/3 1/1/3 8/9/3 7/10/3
f 4/11/4 3/12/4 6/13/4 5/14/4
f 3/12/5 2/2/5 7/10/5 6/13/5
f 1/1/6 4/15/6 5/16/6 8/9/6
f 9/17/1 10/18/1 11/19/1 12/20/1
f 13/21/2 14/22/2 15/23/2 16/24/2
f 10/18/7 9/17/7 16/25/7 15/26/7
f 12/27/8 11/28/8 14/29/8 13/30/8
f 11/28/5 10/18/5 15/26/5 14/29/5
f 9/17/6 12/31/6 13/32/6 16/25/6
f 17/33/1 18/34/1 19/35/1 20/36/1
f 21/37/2 22/38/2 23/39/2 24/40/2
f 18/34/3 17/33/3 24/41/3 23/42/3
f 20/43/4 19/44/4 22/45/4 21/46/4
f 19/44/5 18/34/5 23/42/5 22/45/5
f 17/33/6 20/47/6 21/48/6 24/41/6
f 25/49/1 26/50/1 27/51/1 28/52/1
f 29/53/2 30/54/2 31/55/2 32/56/2
f 26/50/9 25/49/9 32/57/9 31/58/9
f 28/59/10 27/60/10 30/61/10 29/62/10
f 27/60/5 26/50/5 31/58/5 30/61/5
f 25/49/6 28/63/6 29/64/6 32/57/6
f 33/65/1 34/66/1 35/67/1 36/68/1
f 37/69/2 38/70/2 39/71/2 40/72/2
f 34/66/3 33/65/3 40/73/3 39/74/3
f 36/75/4 35/76/4 38/77/4 37/78/4
f 35/76/5 34/66/5 39/74/5 38/77/5
f 33/65/6 36/79/6 37/80/6 40/73/6
f 41/81/1 42/82/1 43/83/1 44/84/1
f 45/85/2 46/86/2 47/87/2 48/88/2
f 42/82/3 41/81/3 48/89/3 47/90/3
f 44/91/4 43/92/4 46/93/4 45/94/4
f 43/92/5 42/82/5 47/90/5 46/93/5
f 41/81/6 44/95/6 45/96/6 48/89/6
f 49/97/5 50/98/5 51/99/5 52/100/5
f 53/101/5 54/102/5 55/103/5 56/104/5
f 50/98/11 49/97/11 56/105/11 55/106/11
f 52/107/12 51/99/12 54/108/12 53/109/12
f 51/99/5 50/98/5 55/106/5 54/108/5
f 49/97/5 52/100/5 53/110/5 56/105/5
f 57/111/5 58/112/5 59/113/5 60/114/5
f 61/115/5 62/116/5 63/117/5 64/118/5
f 58/112/11 57/111/11 64/119/11 63/120/11
f 60/121/12 59/113/12 62/122/12 61/123/12
f 59/113/5 58/112/5 63/120/5 62/122/5
f 57/111/5 60/114/5 61/124/5 64/119/5
f 65/125/1 66/126/1 67/127/1 68/128/1
f 69/129/2 70/130/2 71/131/2 72/132/2
f 66/126/3 65/125/3 72/133/3 71/134/3
f 68/135/4 67/136/4 70/137/4 69/138/4
f 67/136/5 66/126/5 71/134/5 70/137/5
f 65/125/6 68/139/6 69/140/6 72/133/6
f 73/141/1 74/142/1 75/143/1 76/144/1
f 77/145/2 78/146/2 79/147/2 80/148/2
f 74/142/3 73/141/3 80/149/3 79/150/3
f 76/151/4 75/152/4 78/153/4 77/154/4
f 75/152/5 74/142/5 79/150/5 78/153/5
f 73/141/6 76/155/6 77/156/6 80/149/6
f 81/157/13 82/158/13 83/159/13 84/160/13
f 85/161/14 86/162/14 87/163/14 88/164/14
f 82/158/15 81/157/15 88/165/15 87/166/15
f 84/167/16 83/168/16 86/169/16 85/170/16
f 83/168/5 82/158/5 87/166/5 86/169/5
f 81/157/6 84/171/6 85/172/6 88/165/6
f 89/173/1 90/174/1 91/175/1 92/176/1
f 93/177/2 94/178/2 95/179/2 96/180/2
f 90/174/3 89/173/3 96/181/3 95/182/3
f 92/183/4 91/184/4 94/185/4 93/186/4
f 91/184/5 90/174/5 95/182/5 94/185/5
f 89/173/6 92/187/6 93/188/6 96/181/6
f 97/189/1 98/190/1 99/191/1 100/192/1
f 101/193/2 102/194/2 103/195/2 104/196/2
f 98/190/3 97/189/3 104/197/3 103/198/3
f 100/199/4 99/200/4 102/201/4 101/202/4
f 99/200/5 98/190/5 103/198/5 102/201/5
f 97/189/6 100/203/6 101/204/6 104/197/6
f 105/205/1 106/206/1 107/207/1 108/208/1
f 109/209/2 110/210/2 111/211/2 112/212/2
f 106/206/3 105/205/3 112/213/3 111/214/3
f 108/215/4 107/216/4 110/217/4 109/218/4
f 107/216/5 106/206/5 111/214/5 110/217/5
f 105/205/6 108/219/6 109/220/6 112/213/6
f 113/221/17 114/222/17 115/223/17 116/224/17
f 117/225/18 118/226/18 119/227/18 120/228/18
f 114/222/19 113/221/19 120/229/19 119/230/19
f 116/231/20 115/232/20 118/233/20 117/234/20
f 115/232/5 114/222/5 119/230/5 118/233/5
f 113/221/6 116/235/6 117/236/6 120/229/6
f 121/237/1 122/238/1 123/239/1 124/240/1
f 125/241/2 126/242/2 127/243/2 128/244/2
f 122/238/3 121/237/3 128/245/3 127/246/3
f 124/247/4 123/248/4 126/249/4 125/250/4
f 123/248/5 122/238/5 127/246/5 126/249/5
f 121/237/6 124/251/6 125/252/6 128/245/6
f 129/253/1 130/254/1 131/255/1 132/256/1
f 133/257/2 134/258/2 135/259/2 136/260/2
f 130/254/3 129/253/3 136/261/3 135/262/3
f 132/263/4 131/264/4 134/265/4 133/266/4
f 131/264/5 130/254/5 135/262/5 134/265/5
f 129/253/6 132/267/6 133/268/6 136/261/6
f 137/269/1 138/270/1 139/271/1 140/272/1
f 141/273/2 142/274/2 143/275/2 144/276/2
f 138/270/3 137/269/3 144/277/3 143/278/3
f 140/279/4 139/280/4 142/281/4 141/282/4
f 139/280/5 138/270/5 143/278/5 142/281/5
f 137/269/6 140/283/6 141/284/6 144/277/6
f 145/285/1 146/286/1 147/287/1 148/288/1
f 149/289/2 150/290/2 151/291/2 152/292/2
f 146/286/3 145/285/3 152/293/3 151/294/3
f 148/295/4 147/296/4 150/297/4 149/298/4
f 147/296/5 146/286/5 151/294/5 150/297/5
f 145/285/6 148/299/6 149/300/6 152/293/6
