# Blender v2.79 (sub 0) OBJ File: ''
# www.blender.org
mtllib trin_v6_turbo.obj.mtl
o trin_v6_turbo.obj
v -0.187500 0.250000 -0.000000
v -0.187500 0.250000 0.812500
v 0.187500 0.250000 0.812500
v 0.187500 0.250000 0.000000
v 0.187500 0.000000 0.000000
v 0.187500 0.000000 0.812500
v -0.187500 -0.000000 0.812500
v -0.187500 -0.000000 -0.000000
v -0.312500 0.341506 0.031250
v -0.312500 0.341506 0.781250
v -0.150120 0.435256 0.781250
v -0.150120 0.435256 0.031250
v -0.025120 0.218750 0.031250
v -0.025120 0.218750 0.781250
v -0.187500 0.125000 0.781250
v -0.187500 0.125000 0.031250
v -0.125000 0.093750 0.781250
v -0.125000 0.093750 0.843750
v -0.062500 0.093750 0.843750
v -0.062500 0.093750 0.781250
v -0.062500 0.031250 0.781250
v -0.062500 0.031250 0.843750
v -0.125000 0.031250 0.843750
v -0.125000 0.031250 0.781250
v 0.093750 0.218750 0.781250
v 0.093750 0.218750 0.843750
v 0.156250 0.218750 0.843750
v 0.156250 0.218750 0.781250
v 0.156250 0.156250 0.781250
v 0.156250 0.156250 0.843750
v 0.093750 0.156250 0.843750
v 0.093750 0.156250 0.781250
v -0.156250 0.218750 0.781250
v -0.156250 0.218750 0.843750
v -0.093750 0.218750 0.843750
v -0.093750 0.218750 0.781250
v -0.093750 0.156250 0.781250
v -0.093750 0.156250 0.843750
v -0.156250 0.156250 0.843750
v -0.156250 0.156250 0.781250
v 0.062500 0.093750 0.781250
v 0.062500 0.093750 0.843750
v 0.125000 0.093750 0.843750
v 0.125000 0.093750 0.781250
v 0.125000 0.031250 0.781250
v 0.125000 0.031250 0.843750
v 0.062500 0.031250 0.843750
v 0.062500 0.031250 0.781250
v 0.156250 0.156250 0.781250
v 0.156250 0.156250 0.843750
v 0.156250 0.156250 0.843750
v 0.156250 0.156250 0.781250
v 0.126010 0.034963 0.781250
v 0.126010 0.034963 0.843750
v 0.126010 0.034963 0.843750
v 0.126010 0.034963 0.781250
v 0.093750 0.215625 0.781250
v 0.093750 0.215625 0.843750
v 0.093750 0.215625 0.843750
v 0.093750 0.215625 0.781250
v 0.063510 0.094338 0.781250
v 0.063510 0.094338 0.843750
v 0.063510 0.094338 0.843750
v 0.063510 0.094338 0.781250
v -0.093750 0.215625 0.781250
v -0.093750 0.215625 0.843750
v -0.093750 0.215625 0.843750
v -0.093750 0.215625 0.781250
v -0.063510 0.094338 0.781250
v -0.063510 0.094338 0.843750
v -0.063510 0.094338 0.843750
v -0.063510 0.094338 0.781250
v -0.156250 0.156250 0.781250
v -0.156250 0.156250 0.843750
v -0.156250 0.156250 0.843750
v -0.156250 0.156250 0.781250
v -0.126010 0.034963 0.781250
v -0.126010 0.034963 0.843750
v -0.126010 0.034963 0.843750
v -0.126010 0.034963 0.781250
v 0.150120 0.435256 0.031250
v 0.150120 0.435256 0.781250
v 0.312500 0.341506 0.781250
v 0.312500 0.341506 0.031250
v 0.187500 0.125000 0.031250
v 0.187500 0.125000 0.781250
v 0.025120 0.218750 0.781250
v 0.025120 0.218750 0.031250
v -0.187500 0.437500 0.062500
v -0.187500 0.437500 0.750000
v 0.187500 0.437500 0.750000
v 0.187500 0.437500 0.062500
v 0.187500 0.375000 0.062500
v 0.187500 0.375000 0.750000
v -0.187500 0.375000 0.750000
v -0.187500 0.375000 0.062500
vt 1.109375 0.890625
vt 1.312500 0.890625
vt 1.312500 0.984375
vt 1.109375 0.984375
vt 1.312500 0.890625
vt 1.515625 0.890625
vt 1.515625 0.984375
vt 1.312500 0.984375
vt 1.109375 0.828125
vt 1.312500 0.828125
vt 1.609375 0.890625
vt 1.406250 0.890625
vt 1.406250 0.828125
vt 1.609375 0.828125
vt 1.015625 0.890625
vt 1.015625 0.828125
vt 1.062500 0.687500
vt 1.250000 0.687500
vt 1.250000 0.734375
vt 1.062500 0.734375
vt 1.250000 0.687500
vt 1.437500 0.687500
vt 1.437500 0.734375
vt 1.250000 0.734375
vt 1.062500 0.625000
vt 1.250000 0.625000
vt 1.484375 0.687500
vt 1.296875 0.687500
vt 1.296875 0.625000
vt 1.484375 0.625000
vt 1.015625 0.687500
vt 1.015625 0.625000
vt 1.031250 0.968750
vt 1.046875 0.968750
vt 1.046875 0.984375
vt 1.031250 0.984375
vt 1.046875 0.968750
vt 1.062500 0.968750
vt 1.062500 0.984375
vt 1.046875 0.984375
vt 1.031250 0.953125
vt 1.046875 0.953125
vt 1.078125 0.968750
vt 1.062500 0.968750
vt 1.062500 0.953125
vt 1.078125 0.953125
vt 1.015625 0.968750
vt 1.015625 0.953125
vt 1.656250 0.968750
vt 1.671875 0.968750
vt 1.671875 0.984375
vt 1.656250 0.984375
vt 1.671875 0.968750
vt 1.687500 0.968750
vt 1.687500 0.984375
vt 1.671875 0.984375
vt 1.656250 0.953125
vt 1.671875 0.953125
vt 1.703125 0.968750
vt 1.687500 0.968750
vt 1.687500 0.953125
vt 1.703125 0.953125
vt 1.640625 0.968750
vt 1.640625 0.953125
vt 1.781250 0.968750
vt 1.796875 0.968750
vt 1.796875 0.984375
vt 1.781250 0.984375
vt 1.796875 0.968750
vt 1.812500 0.968750
vt 1.812500 0.984375
vt 1.796875 0.984375
vt 1.781250 0.953125
vt 1.796875 0.953125
vt 1.828125 0.968750
vt 1.812500 0.968750
vt 1.812500 0.953125
vt 1.828125 0.953125
vt 1.765625 0.968750
vt 1.765625 0.953125
vt 1.906250 0.968750
vt 1.921875 0.968750
vt 1.921875 0.984375
vt 1.906250 0.984375
vt 1.921875 0.968750
vt 1.937500 0.968750
vt 1.937500 0.984375
vt 1.921875 0.984375
vt 1.906250 0.953125
vt 1.921875 0.953125
vt 1.953125 0.968750
vt 1.937500 0.968750
vt 1.937500 0.953125
vt 1.953125 0.953125
vt 1.890625 0.968750
vt 1.890625 0.953125
vt 1.640625 0.859375
vt 1.656250 0.859375
vt 1.656250 0.859375
vt 1.640625 0.859375
vt 1.656250 0.859375
vt 1.671875 0.859375
vt 1.671875 0.859375
vt 1.656250 0.859375
vt 1.640625 0.828125
vt 1.656250 0.828125
vt 1.671875 0.859375
vt 1.656250 0.828125
vt 1.671875 0.828125
vt 1.640625 0.828125
vt 1.765625 0.859375
vt 1.781250 0.859375
vt 1.781250 0.859375
vt 1.765625 0.859375
vt 1.781250 0.859375
vt 1.796875 0.859375
vt 1.796875 0.859375
vt 1.781250 0.859375
vt 1.765625 0.828125
vt 1.781250 0.828125
vt 1.796875 0.859375
vt 1.781250 0.828125
vt 1.796875 0.828125
vt 1.765625 0.828125
vt 1.890625 0.859375
vt 1.906250 0.859375
vt 1.906250 0.859375
vt 1.890625 0.859375
vt 1.906250 0.859375
vt 1.921875 0.859375
vt 1.921875 0.859375
vt 1.906250 0.859375
vt 1.890625 0.828125
vt 1.906250 0.828125
vt 1.921875 0.859375
vt 1.906250 0.828125
vt 1.921875 0.828125
vt 1.890625 0.828125
vt 1.015625 0.734375
vt 1.031250 0.734375
vt 1.031250 0.734375
vt 1.015625 0.734375
vt 1.031250 0.734375
vt 1.046875 0.734375
vt 1.046875 0.734375
vt 1.031250 0.734375
vt 1.015625 0.703125
vt 1.031250 0.703125
vt 1.046875 0.734375
vt 1.031250 0.703125
vt 1.046875 0.703125
vt 1.015625 0.703125
vt 1.562500 0.687500
vt 1.750000 0.687500
vt 1.750000 0.734375
vt 1.562500 0.734375
vt 1.750000 0.687500
vt 1.937500 0.687500
vt 1.937500 0.734375
vt 1.750000 0.734375
vt 1.562500 0.625000
vt 1.750000 0.625000
vt 1.984375 0.687500
vt 1.796875 0.687500
vt 1.796875 0.625000
vt 1.984375 0.625000
vt 1.515625 0.687500
vt 1.515625 0.625000
vt 1.109375 0.515625
vt 1.281250 0.515625
vt 1.281250 0.609375
vt 1.109375 0.609375
vt 1.281250 0.515625
vt 1.453125 0.515625
vt 1.453125 0.609375
vt 1.281250 0.609375
vt 1.109375 0.500000
vt 1.281250 0.500000
vt 1.546875 0.515625
vt 1.375000 0.515625
vt 1.375000 0.500000
vt 1.546875 0.500000
vt 1.015625 0.515625
vt 1.015625 0.500000
vn -0.0000 1.0000 -0.0000
vn 0.0000 -1.0000 0.0000
vn -1.0000 -0.0000 -0.0000
vn 1.0000 0.0000 0.0000
vn -0.0000 0.0000 1.0000
vn 0.0000 0.0000 -1.0000
vn -0.5000 0.8660 -0.0000
vn 0.5000 -0.8660 0.0000
vn -0.8660 -0.5000 -0.0000
vn 0.8660 0.5000 0.0000
vn -0.9703 0.2419 0.0000
vn 0.9703 -0.2419 0.0000
vn -0.9703 -0.2419 -0.0000
vn 0.9703 0.2419 0.0000
vn 0.5000 0.8660 0.0000
vn -0.5000 -0.8660 -0.0000
vn -0.8660 0.5000 -0.0000
vn 0.8660 -0.5000 0.0000
usemtl ModelMaterial
s off
f 1/1/1 2/2/1 3/3/1 4/4/1
f 5/5/2 6/6/2 7/7/2 8/8/2
f 2/2/3 1/1/3 8/9/3 7/10/3
f 4/11/4 3/12/4 6/13/4 5/14/4
f 3/12/5 2/2/5 7/10/5 6/13/5
f 1/1/6 4/15/6 5/16/6 8/9/6
f 9/17/7 10/18/7 11/19/7 12/20/7
f 13/21/8 14/22/8 15/23/8 16/24/8
f 10/18/9 9/17/9 16/25/9 15/26/9
f 12/27/10 11/28/10 14/29/10 13/30/10
f 11/28/5 10/18/5 15/26/5 14/29/5
f 9/17/6 12/31/6 13/32/6 16/25/6
f 17/33/1 18/34/1 19/35/1 20/36/1
f 21/37/2 22/38/2 23/39/2 24/40/2
f 18/34/3 17/33/3 24/41/3 23/42/3
f 20/43/4 19/44/4 22/45/4 21/46/4
f 19/44/5 18/34/5 23/42/5 22/45/5
f 17/33/6 20/47/6 21/48/6 24/41/6
f 25/49/1 26/50/1 27/51/1 28/52/1
f 29/53/2 30/54/2 31/55/2 32/56/2
f 26/50/3 25/49/3 32/57/3 31/58/3
f 28/59/4 27/60/4 30/61/4 29/62/4
f 27/60/5 26/50/5 31/58/5 30/61/5
f 25/49/6 28/63/6 29/64/6 32/57/6
f 33/65/1 34/66/1 35/67/1 36/68/1
f 37/69/2 38/70/2 39/71/2 40/72/2
f 34/66/3 33/65/3 40/73/3 39/74/3
f 36/75/4 35/76/4 38/77/4 37/78/4
f 35/76/5 34/66/5 39/74/5 38/77/5
f 33/65/6 36/79/6 37/80/6 40/73/6
f 41/81/1 42/82/1 43/83/1 44/84/1
f 45/85/2 46/86/2 47/87/2 48/88/2
f 42/82/3 41/81/3 48/89/3 47/90/3
f 44/91/4 43/92/4 46/93/4 45/94/4
f 43/92/5 42/82/5 47/90/5 46/93/5
f 41/81/6 44/95/6 45/96/6 48/89/6
f 49/97/5 50/98/5 51/99/5 52/100/5
f 53/101/5 54/102/5 55/103/5 56/104/5
f 50/98/11 49/97/11 56/105/11 55/106/11
f 52/107/12 51/99/12 54/108/12 53/109/12
f 51/99/5 50/98/5 55/106/5 54/108/5
f 49/97/5 52/100/5 53/110/5 56/105/5
f 57/111/5 58/112/5 59/113/5 60/114/5
f 61/115/5 62/116/5 63/117/5 64/118/5
f 58/112/11 57/111/11 64/119/11 63/120/11
f 60/121/12 59/113/12 62/122/12 61/123/12
f 59/113/5 58/112/5 63/120/5 62/122/5
f 57/111/5 60/114/5 61/124/5 64/119/5
f 65/125/5 66/126/5 67/127/5 68/128/5
f 69/129/5 70/130/5 71/131/5 72/132/5
f 66/126/13 65/125/13 72/133/13 71/134/13
f 68/135/14 67/127/14 70/136/14 69/137/14
f 67/127/5 66/126/5 71/134/5 70/136/5
f 65/125/5 68/128/5 69/138/5 72/133/5
f 73/139/5 74/140/5 75/141/5 76/142/5
f 77/143/5 78/144/5 79/145/5 80/146/5
f 74/140/13 73/139/13 80/147/13 79/148/13
f 76/149/14 75/141/14 78/150/14 77/151/14
f 75/141/5 74/140/5 79/148/5 78/150/5
f 73/139/5 76/142/5 77/152/5 80/147/5
f 81/153/15 82/154/15 83/155/15 84/156/15
f 85/157/16 86/158/16 87/159/16 88/160/16
f 82/154/17 81/153/17 88/161/17 87/162/17
f 84/163/18 83/164/18 86/165/18 85/166/18
f 83/164/5 82/154/5 87/162/5 86/165/5
f 81/153/6 84/167/6 85/168/6 88/161/6
f 89/169/1 90/170/1 91/171/1 92/172/1
f 93/173/2 94/174/2 95/175/2 96/176/2
f 90/170/3 89/169/3 96/177/3 95/178/3
f 92/179/4 91/180/4 94/181/4 93/182/4
f 91/180/5 90/170/5 95/178/5 94/181/5
f 89/169/6 92/183/6 93/184/6 96/177/6
